<svg xmlns="http://www.w3.org/2000/svg" xmlns:xlink="http://www.w3.org/1999/xlink" width="500" zoomAndPan="magnify" viewBox="0 0 375 374.999991" height="500" preserveAspectRatio="xMidYMid meet" version="1.0"><defs><g/><clipPath id="72b69bf113"><path d="M 224 191 L 265 191 L 265 233 L 224 233 Z M 224 191 " clip-rule="nonzero"/></clipPath><clipPath id="6d7cb7a520"><path d="M 222.410156 195.078125 L 227.984375 189.703125 L 265.863281 228.980469 L 260.289062 234.355469 Z M 222.410156 195.078125 " clip-rule="nonzero"/></clipPath><clipPath id="0a6bc68ae5"><path d="M 225.199219 192.390625 C 225.9375 191.679688 226.929688 191.289062 227.957031 191.308594 C 228.984375 191.324219 229.960938 191.75 230.671875 192.492188 L 263.164062 226.183594 C 263.878906 226.921875 264.269531 227.914062 264.25 228.941406 C 264.230469 229.96875 263.804688 230.945312 263.066406 231.65625 C 262.328125 232.371094 261.335938 232.757812 260.308594 232.742188 C 259.28125 232.722656 258.304688 232.296875 257.59375 231.558594 L 225.097656 197.867188 C 224.386719 197.125 223.996094 196.136719 224.015625 195.109375 C 224.035156 194.082031 224.460938 193.105469 225.199219 192.390625 Z M 225.199219 192.390625 " clip-rule="nonzero"/></clipPath><clipPath id="e78bb9d0b4"><path d="M 224 191 L 265 191 L 265 233 L 224 233 Z M 224 191 " clip-rule="nonzero"/></clipPath><clipPath id="4cdb5bbb28"><path d="M 222.410156 195.078125 L 228.09375 189.597656 L 266.039062 228.945312 L 260.355469 234.425781 Z M 222.410156 195.078125 " clip-rule="nonzero"/></clipPath><clipPath id="709abfe331"><path d="M 222.433594 195.101562 L 228.574219 189.179688 L 267.066406 229.09375 L 260.925781 235.015625 Z M 222.433594 195.101562 " clip-rule="nonzero"/></clipPath><clipPath id="df88f1b8de"><path d="M 225.214844 192.417969 C 225.953125 191.703125 226.945312 191.316406 227.96875 191.332031 C 228.996094 191.351562 229.972656 191.777344 230.683594 192.515625 L 263.140625 226.167969 C 263.851562 226.90625 264.242188 227.898438 264.222656 228.921875 C 264.203125 229.949219 263.777344 230.925781 263.039062 231.636719 C 262.300781 232.347656 261.3125 232.738281 260.285156 232.71875 C 259.261719 232.699219 258.285156 232.273438 257.570312 231.535156 L 225.117188 197.882812 C 224.40625 197.144531 224.015625 196.15625 224.035156 195.128906 C 224.054688 194.105469 224.476562 193.128906 225.214844 192.417969 Z M 225.214844 192.417969 " clip-rule="nonzero"/></clipPath><clipPath id="f75fce94f0"><path d="M 234 165 L 258 165 L 258 190 L 234 190 Z M 234 165 " clip-rule="nonzero"/></clipPath><clipPath id="8ac0e900f8"><path d="M 253.242188 163.960938 L 258.941406 169.203125 L 238.445312 191.488281 L 232.746094 186.246094 Z M 253.242188 163.960938 " clip-rule="nonzero"/></clipPath><clipPath id="b2a3a158d3"><path d="M 256.089844 166.582031 C 256.847656 167.277344 257.296875 168.246094 257.339844 169.269531 C 257.382812 170.296875 257.015625 171.296875 256.320312 172.054688 L 241.082031 188.621094 C 240.386719 189.378906 239.417969 189.828125 238.394531 189.871094 C 237.367188 189.914062 236.367188 189.546875 235.609375 188.851562 C 234.855469 188.15625 234.40625 187.191406 234.363281 186.164062 C 234.320312 185.136719 234.6875 184.136719 235.382812 183.382812 L 250.621094 166.8125 C 251.316406 166.054688 252.28125 165.605469 253.308594 165.5625 C 254.335938 165.519531 255.335938 165.886719 256.089844 166.582031 Z M 256.089844 166.582031 " clip-rule="nonzero"/></clipPath><clipPath id="6077adf314"><path d="M 234 165 L 258 165 L 258 190 L 234 190 Z M 234 165 " clip-rule="nonzero"/></clipPath><clipPath id="3890b7f551"><path d="M 253.242188 163.960938 L 259.054688 169.304688 L 238.496094 191.660156 L 232.683594 186.3125 Z M 253.242188 163.960938 " clip-rule="nonzero"/></clipPath><clipPath id="cd3df0518e"><path d="M 253.230469 163.972656 L 259.507812 169.75 L 238.335938 192.773438 L 232.054688 186.996094 Z M 253.230469 163.972656 " clip-rule="nonzero"/></clipPath><clipPath id="2c4bc67824"><path d="M 256.078125 166.59375 C 256.832031 167.285156 257.28125 168.253906 257.324219 169.277344 C 257.367188 170.300781 257 171.300781 256.304688 172.054688 L 241.085938 188.605469 C 240.390625 189.363281 239.425781 189.808594 238.398438 189.851562 C 237.375 189.894531 236.375 189.53125 235.621094 188.835938 C 234.867188 188.140625 234.417969 187.175781 234.375 186.152344 C 234.332031 185.125 234.695312 184.125 235.390625 183.371094 L 250.613281 166.820312 C 251.308594 166.066406 252.273438 165.617188 253.296875 165.574219 C 254.320312 165.53125 255.320312 165.898438 256.078125 166.59375 Z M 256.078125 166.59375 " clip-rule="nonzero"/></clipPath><clipPath id="1c191d2a5a"><path d="M 202 159 L 241 159 L 241 199 L 202 199 Z M 202 159 " clip-rule="nonzero"/></clipPath><clipPath id="753e6a5057"><path d="M 200.507812 162.914062 L 206.191406 157.433594 L 242.449219 195.03125 L 236.765625 200.511719 Z M 200.507812 162.914062 " clip-rule="nonzero"/></clipPath><clipPath id="328cb7f7c3"><path d="M 200.527344 162.933594 L 206.667969 157.011719 L 243.1875 194.878906 L 237.046875 200.800781 Z M 200.527344 162.933594 " clip-rule="nonzero"/></clipPath><clipPath id="986eba1908"><path d="M 203.3125 160.25 C 204.050781 159.539062 205.039062 159.148438 206.066406 159.167969 C 207.089844 159.1875 208.066406 159.613281 208.777344 160.351562 L 239.464844 192.167969 C 240.175781 192.90625 240.566406 193.898438 240.546875 194.921875 C 240.53125 195.949219 240.105469 196.925781 239.367188 197.636719 C 238.628906 198.347656 237.636719 198.738281 236.613281 198.71875 C 235.585938 198.699219 234.609375 198.277344 233.898438 197.539062 L 203.210938 165.71875 C 202.5 164.980469 202.109375 163.988281 202.128906 162.964844 C 202.148438 161.9375 202.574219 160.960938 203.3125 160.25 Z M 203.3125 160.25 " clip-rule="nonzero"/></clipPath><clipPath id="a27c419c0f"><path d="M 204 195 L 235 195 L 235 228 L 204 228 Z M 204 195 " clip-rule="nonzero"/></clipPath><clipPath id="7b935c4f47"><path d="M 230.9375 193.441406 L 236.683594 198.855469 L 208.359375 228.914062 L 202.613281 223.5 Z M 230.9375 193.441406 " clip-rule="nonzero"/></clipPath><clipPath id="68470d8932"><path d="M 230.921875 193.457031 L 237.128906 199.308594 L 208.851562 229.316406 L 202.644531 223.464844 Z M 230.921875 193.457031 " clip-rule="nonzero"/></clipPath><clipPath id="f8326d2401"><path d="M 233.738281 196.109375 C 234.484375 196.8125 234.917969 197.785156 234.949219 198.808594 C 234.980469 199.835938 234.601562 200.832031 233.898438 201.578125 L 210.992188 225.882812 C 210.289062 226.628906 209.320312 227.066406 208.292969 227.097656 C 207.269531 227.125 206.273438 226.75 205.527344 226.042969 C 204.78125 225.339844 204.34375 224.371094 204.3125 223.34375 C 204.28125 222.320312 204.660156 221.324219 205.363281 220.578125 L 228.269531 196.273438 C 228.972656 195.527344 229.945312 195.089844 230.96875 195.058594 C 231.996094 195.027344 232.988281 195.40625 233.738281 196.109375 Z M 233.738281 196.109375 " clip-rule="nonzero"/></clipPath><clipPath id="6427eba972"><path d="M 232 184 L 241 184 L 241 192 L 232 192 Z M 232 184 " clip-rule="nonzero"/></clipPath><clipPath id="2b1582870f"><path d="M 234.84375 184.039062 L 240.386719 189.261719 L 238.304688 191.46875 L 232.761719 186.25 Z M 234.84375 184.039062 " clip-rule="nonzero"/></clipPath><clipPath id="27b1ef1b19"><path d="M 232 184 L 241 184 L 241 192 L 232 192 Z M 232 184 " clip-rule="nonzero"/></clipPath><clipPath id="b3fb307ed3"><path d="M 234.84375 184.039062 L 240.59375 189.453125 L 238.507812 191.664062 L 232.761719 186.25 Z M 234.84375 184.039062 " clip-rule="nonzero"/></clipPath><clipPath id="cadf72b19e"><path d="M 234.84375 184.039062 L 240.382812 189.257812 L 238.304688 191.46875 L 232.761719 186.25 Z M 234.84375 184.039062 " clip-rule="nonzero"/></clipPath><clipPath id="bfd7892b3d"><path d="M 225 189 L 234 189 L 234 198 L 225 198 Z M 225 189 " clip-rule="nonzero"/></clipPath><clipPath id="478f4754b4"><path d="M 227.828125 189.707031 L 233.371094 194.929688 L 231.289062 197.140625 L 225.746094 191.917969 Z M 227.828125 189.707031 " clip-rule="nonzero"/></clipPath><clipPath id="1da83af759"><path d="M 225 189 L 234 189 L 234 198 L 225 198 Z M 225 189 " clip-rule="nonzero"/></clipPath><clipPath id="707fa8d7a7"><path d="M 227.828125 189.707031 L 233.574219 195.121094 L 231.492188 197.332031 L 225.746094 191.917969 Z M 227.828125 189.707031 " clip-rule="nonzero"/></clipPath><clipPath id="6e759b7c5d"><path d="M 227.828125 189.707031 L 233.367188 194.929688 L 231.285156 197.136719 L 225.746094 191.917969 Z M 227.828125 189.707031 " clip-rule="nonzero"/></clipPath></defs><g fill="#000000" fill-opacity="1"><g transform="translate(48.151917, 212.692206)"><g><path d="M 4.9375 0 L 4.9375 -4.9375 L 9.875 -4.9375 L 9.875 -29.609375 L 4.9375 -29.609375 L 4.9375 -34.546875 L 14.796875 -34.546875 L 14.796875 -4.9375 L 19.734375 -4.9375 L 19.734375 0 Z M 9.875 -39.46875 L 9.875 -44.40625 L 14.796875 -44.40625 L 14.796875 -39.46875 Z M 9.875 -39.46875 "/></g></g></g><g fill="#000000" fill-opacity="1"><g transform="translate(81.049083, 212.692206)"><g><path d="M 0 0 L 0 -34.546875 L 4.9375 -34.546875 L 4.9375 -31.25 L 8.21875 -34.546875 L 9.875 -34.546875 L 13.15625 -31.25 L 16.453125 -34.546875 L 18.09375 -34.546875 L 24.671875 -27.96875 L 24.671875 0 L 19.734375 0 L 19.734375 -26.3125 L 18.09375 -27.96875 L 17.265625 -28.78125 L 14.796875 -26.3125 L 14.796875 0 L 9.875 0 L 9.875 -27.96875 L 9.046875 -28.78125 L 4.9375 -24.671875 L 4.9375 0 Z M 0 0 "/></g></g></g><g fill="#000000" fill-opacity="1"><g transform="translate(113.94625, 212.692206)"><g><path d="M 0 0 L 0 -34.546875 L 4.9375 -34.546875 L 4.9375 -31.25 L 8.21875 -34.546875 L 9.875 -34.546875 L 13.15625 -31.25 L 16.453125 -34.546875 L 18.09375 -34.546875 L 24.671875 -27.96875 L 24.671875 0 L 19.734375 0 L 19.734375 -26.3125 L 18.09375 -27.96875 L 17.265625 -28.78125 L 14.796875 -26.3125 L 14.796875 0 L 9.875 0 L 9.875 -27.96875 L 9.046875 -28.78125 L 4.9375 -24.671875 L 4.9375 0 Z M 0 0 "/></g></g></g><g fill="#000000" fill-opacity="1"><g transform="translate(146.843417, 212.692206)"><g><path d="M 19.734375 -19.734375 L 19.734375 -24.671875 L 14.796875 -29.609375 L 9.875 -29.609375 L 4.9375 -24.671875 L 4.9375 -19.734375 Z M 8.21875 0 L 0 -8.21875 L 0 -26.3125 L 8.21875 -34.546875 L 16.453125 -34.546875 L 24.671875 -26.3125 L 24.671875 -14.796875 L 4.9375 -14.796875 L 4.9375 -9.875 L 9.875 -4.9375 L 14.796875 -4.9375 L 21.375 -11.515625 L 24.671875 -8.21875 L 16.453125 0 Z M 8.21875 0 "/></g></g></g><g fill="#000000" fill-opacity="1"><g transform="translate(179.740584, 212.692206)"><g><path d="M 0 0 L 0 -34.546875 L 4.9375 -34.546875 L 4.9375 -29.609375 L 9.875 -34.546875 L 16.453125 -34.546875 L 24.671875 -26.3125 L 21.375 -23.03125 L 14.796875 -29.609375 L 11.515625 -29.609375 L 4.9375 -23.03125 L 4.9375 0 Z M 0 0 "/></g></g></g><g clip-path="url(#72b69bf113)"><g clip-path="url(#6d7cb7a520)"><g clip-path="url(#0a6bc68ae5)"><path fill="#000000" d="M 222.410156 195.078125 L 227.984375 189.703125 L 265.84375 228.957031 L 260.269531 234.332031 Z M 222.410156 195.078125 " fill-opacity="1" fill-rule="nonzero"/></g></g></g><g clip-path="url(#e78bb9d0b4)"><g clip-path="url(#4cdb5bbb28)"><g clip-path="url(#709abfe331)"><g clip-path="url(#df88f1b8de)"><path stroke-linecap="butt" transform="matrix(0.437171, -0.421612, 0.421612, 0.437171, 222.432616, 195.101018)" fill="none" stroke-linejoin="miter" d="M 6.363985 0.00018804 C 8.056 -0.00317547 9.673894 0.672544 10.868959 1.860817 C 12.064189 3.058185 12.734905 4.678977 12.733639 6.366527 L 12.736459 83.346818 C 12.735194 85.034368 12.064104 86.656727 10.871201 87.847327 C 9.673833 89.042557 8.053041 89.713273 6.365491 89.712007 C 4.677941 89.710741 3.060211 89.044116 1.864982 87.846748 C 0.674381 86.653845 0.0036655 85.033053 0.000301986 83.341038 L 0.00211057 6.365212 C 0.00337654 4.677662 0.670002 3.059932 1.867369 1.864703 C 3.060272 0.674103 4.676435 -0.00107793 6.363985 0.00018804 Z M 6.363985 0.00018804 " stroke="#000000" stroke-width="2.469743" stroke-opacity="1" stroke-miterlimit="4"/></g></g></g></g><g clip-path="url(#f75fce94f0)"><g clip-path="url(#8ac0e900f8)"><g clip-path="url(#b2a3a158d3)"><path fill="#000000" d="M 253.242188 163.960938 L 258.941406 169.203125 L 238.464844 191.464844 L 232.765625 186.226562 Z M 253.242188 163.960938 " fill-opacity="1" fill-rule="nonzero"/></g></g></g><g clip-path="url(#6077adf314)"><g clip-path="url(#3890b7f551)"><g clip-path="url(#cd3df0518e)"><g clip-path="url(#2c4bc67824)"><path stroke-linecap="butt" transform="matrix(0.447041, 0.411132, -0.411132, 0.447041, 253.230192, 163.974246)" fill="none" stroke-linejoin="miter" d="M 6.371006 0.000404091 C 8.05528 -0.00194925 9.679416 0.671403 10.872169 1.863819 C 12.064922 3.056236 12.734483 4.677391 12.732102 6.366018 L 12.735224 43.38613 C 12.737197 45.079491 12.064225 46.69454 10.867075 47.891647 C 9.674658 49.0844 8.057857 49.758695 6.36923 49.756314 C 4.680603 49.753933 3.06082 49.085315 1.868067 47.892899 C 0.67096 46.695748 -0.00333451 45.078947 -0.000953853 43.39032 L 0.000658296 6.365854 C 0.00303896 4.677227 0.671657 3.057444 1.864074 1.864691 C 3.05649 0.671938 4.677645 0.00237717 6.371006 0.000404091 Z M 6.371006 0.000404091 " stroke="#000000" stroke-width="2.469743" stroke-opacity="1" stroke-miterlimit="4"/></g></g></g></g><g clip-path="url(#1c191d2a5a)"><g clip-path="url(#753e6a5057)"><g clip-path="url(#328cb7f7c3)"><g clip-path="url(#986eba1908)"><path stroke-linecap="butt" transform="matrix(0.437171, -0.421612, 0.421612, 0.437171, 200.527038, 162.935161)" fill="none" stroke-linejoin="miter" d="M 6.370233 0.00138175 C 8.057783 0.00264771 9.675513 0.669273 10.870743 1.86664 C 12.061343 3.059543 12.732059 4.680336 12.730793 6.367886 L 12.734876 79.149805 C 12.73361 80.837354 12.06252 82.459714 10.869617 83.650314 C 9.676879 84.850008 8.056086 85.520724 6.368537 85.519458 C 4.680987 85.518192 3.058627 84.847102 1.868027 83.6542 C 0.672798 82.456832 -0.00238312 80.840669 -0.00111716 79.153119 L -0.00073542 6.366571 C 0.000530546 4.679021 0.67162 3.056661 1.864523 1.866061 C 3.061891 0.670832 4.682683 0.00011578 6.370233 0.00138175 Z M 6.370233 0.00138175 " stroke="#000000" stroke-width="2.469743" stroke-opacity="1" stroke-miterlimit="4"/></g></g></g></g><g clip-path="url(#a27c419c0f)"><g clip-path="url(#7b935c4f47)"><g clip-path="url(#68470d8932)"><g clip-path="url(#f8326d2401)"><path stroke-linecap="butt" transform="matrix(0.442005, 0.41654, -0.41654, 0.442005, 230.92228, 193.458254)" fill="none" stroke-linejoin="miter" d="M 6.367981 -0.00316797 C 8.055973 -0.00314946 9.67387 0.672717 10.867001 1.863766 C 12.064543 3.059496 12.735325 4.680937 12.735307 6.368929 L 12.733135 61.358284 C 12.733117 63.046276 12.066342 64.664443 10.870612 65.861984 C 9.675152 67.050435 8.058122 67.725898 6.365719 67.721199 C 4.677727 67.72118 3.05956 67.054405 1.862018 65.858675 C 0.668888 64.667626 -0.00189495 63.046185 -0.00187645 61.358193 L 0.000294815 6.368838 C 0.000313322 4.680847 0.671769 3.058269 1.862818 1.865138 C 3.058548 0.667596 4.675308 0.00122454 6.367981 -0.00316797 Z M 6.367981 -0.00316797 " stroke="#000000" stroke-width="2.469743" stroke-opacity="1" stroke-miterlimit="4"/></g></g></g></g><g clip-path="url(#6427eba972)"><g clip-path="url(#2b1582870f)"><path fill="#000000" d="M 234.84375 184.039062 L 240.386719 189.261719 L 238.304688 191.472656 L 232.761719 186.25 Z M 234.84375 184.039062 " fill-opacity="1" fill-rule="nonzero"/></g></g><g clip-path="url(#27b1ef1b19)"><g clip-path="url(#b3fb307ed3)"><g clip-path="url(#cadf72b19e)"><path stroke-linecap="butt" transform="matrix(0.442076, 0.416465, -0.416465, 0.442076, 234.844501, 184.039704)" fill="none" stroke-linejoin="miter" d="M -0.00162429 0.0000792793 L 12.528689 0.00077479 L 12.534354 4.996698 L -0.000640764 5.000413 Z M -0.00162429 0.0000792793 " stroke="#000000" stroke-width="2.469743" stroke-opacity="1" stroke-miterlimit="4"/></g></g></g><g fill="#000000" fill-opacity="1"><g transform="translate(265.853337, 212.873475)"><g><path d="M 4.9375 0 L 4.9375 -4.9375 L 9.875 -4.9375 L 9.875 -29.609375 L 4.9375 -29.609375 L 4.9375 -34.546875 L 14.796875 -34.546875 L 14.796875 -4.9375 L 19.734375 -4.9375 L 19.734375 0 Z M 9.875 -39.46875 L 9.875 -44.40625 L 14.796875 -44.40625 L 14.796875 -39.46875 Z M 9.875 -39.46875 "/></g></g></g><g fill="#000000" fill-opacity="1"><g transform="translate(298.750063, 212.873475)"><g><path d="M 10.6875 0 L 0 -21.375 L 0 -34.546875 L 4.9375 -34.546875 L 4.9375 -21.375 L 12.328125 -6.578125 L 19.734375 -21.375 L 19.734375 -34.546875 L 24.671875 -34.546875 L 24.671875 -21.375 L 13.984375 0 Z M 10.6875 0 "/></g></g></g><g clip-path="url(#bfd7892b3d)"><g clip-path="url(#478f4754b4)"><path fill="#000000" d="M 227.828125 189.707031 L 233.371094 194.929688 L 231.289062 197.140625 L 225.746094 191.917969 Z M 227.828125 189.707031 " fill-opacity="1" fill-rule="nonzero"/></g></g><g clip-path="url(#1da83af759)"><g clip-path="url(#707fa8d7a7)"><g clip-path="url(#6e759b7c5d)"><path stroke-linecap="butt" transform="matrix(0.442076, 0.416465, -0.416465, 0.442076, 227.827475, 189.708928)" fill="none" stroke-linejoin="miter" d="M -0.00136303 -0.00300726 L 12.533361 0.00236967 L 12.529934 4.998022 L -0.000379495 4.997326 Z M -0.00136303 -0.00300726 " stroke="#000000" stroke-width="2.469743" stroke-opacity="1" stroke-miterlimit="4"/></g></g></g><g fill="#000000" fill-opacity="1"><g transform="translate(17.274219, 224.503857)"><g><path d="M 32.046875 10.609375 L 11.890625 10.609375 L 11.890625 -78.515625 L 32.046875 -78.515625 L 32.046875 -71.90625 L 19.75 -71.90625 L 19.75 4.015625 L 32.046875 4.015625 Z M 32.046875 10.609375 "/></g></g></g><g fill="#000000" fill-opacity="1"><g transform="translate(322.077346, 224.503857)"><g><path d="M 23.765625 10.609375 L 3.609375 10.609375 L 3.609375 4.015625 L 15.890625 4.015625 L 15.890625 -71.90625 L 3.609375 -71.90625 L 3.609375 -78.515625 L 23.765625 -78.515625 Z M 23.765625 10.609375 "/></g></g></g></svg>